<?xml version="1.0" standalone="no"?><!DOCTYPE svg PUBLIC "-//W3C//DTD SVG 1.1//EN" "http://www.w3.org/Graphics/SVG/1.1/DTD/svg11.dtd"><svg t="1533196289514" class="icon" style="" viewBox="0 0 1024 1024" version="1.1" xmlns="http://www.w3.org/2000/svg" p-id="4948" xmlns:xlink="http://www.w3.org/1999/xlink" width="200" height="200"><defs><style type="text/css"></style></defs><path d="M419.500653 309.304193c-17.514669-9.487112-35.029338-18.974225-52.544008-28.582967-29.069486-15.811854-58.138971-31.623708-87.208457-47.435562-11.798076-6.446371-16.663262-16.298373-9.973631-28.461337 6.689631-12.284594 17.879558-13.136002 29.434375-6.81126 68.112602 37.097042 136.346835 74.072455 204.337807 111.656016 17.39304 9.608742 48.773489 3.892149 59.841786-12.406224 34.786079-50.476304 69.450529-100.952607 104.114978-151.55054 1.216296-1.824445 2.432593-3.648889 3.648889-5.351704 9.852001-13.74415 21.163559-17.39304 31.380449-9.365483 11.798076 9.365483 9.852001 20.433781 2.189334 31.623708-14.109039 20.55541-28.218078 41.23245-42.205488 61.787861-19.460744 28.582967-38.921487 57.165934-60.693194 88.911272 8.878964 0 14.595558 0 20.190521 0 74.923863 0 149.969355 0 224.893218 0 22.866374 0 26.393633 3.648889 26.515263 26.515263 0.243259 156.780615 0.364889 313.439601 0.608148 470.220216 0 22.379855-4.013778 26.272004-26.880152 26.393633-5.959853 0-12.041335 0.608148-17.879558-0.12163-21.650077-2.432593-37.461931-0.364889-45.002969 26.393633-6.81126 24.08267-32.475116 36.367265-55.584749 33.934672-26.758522-2.797482-44.394821-18.609336-51.206081-43.543414-4.135408-15.082076-11.189928-17.14978-24.812448-17.028151-94.019717 0.608148-187.917805 0.364889-281.937522 0.12163-10.825039 0-17.14978 0.973037-20.312151 14.109039-6.81126 28.218078-30.042523 46.097636-55.706378 46.584155-26.636893 0.486519-49.746526-16.906521-57.530823-46.219266-3.284-12.284594-8.757335-15.082076-20.068892-14.473928-14.595558 0.851408-29.312745 0.364889-44.029932 0.12163-16.055113-0.364889-23.109633-6.93289-23.109633-22.623114C150.090985 654.367502 150.334244 494.911035 150.699133 335.454567c0-16.541632 6.689631-22.014966 25.055707-22.014966 75.532011-0.12163 151.064022 0 226.474403 0 5.230075 0 10.581779 0 15.811854 0C418.527616 312.101675 419.014135 310.763749 419.500653 309.304193zM837.055232 799.593301c0-151.064022 0-300.425229 0-450.516213-216.987291 0-432.758285 0-648.407649 0 0 150.820763 0 300.546858 0 450.516213C405.391614 799.593301 620.311201 799.593301 837.055232 799.593301zM316.115453 837.541751c-15.690224 0-29.434375 0-44.638081 0 3.040741 12.771113 9.243853 21.771707 21.163559 22.501485C305.898563 861.016273 312.223304 851.164271 316.115453 837.541751zM710.560399 837.420121c4.500297 13.62252 10.581779 23.596152 23.961041 22.623114 12.041335-0.851408 17.636299-10.21689 21.285188-22.623114C740.238033 837.420121 726.493883 837.420121 710.560399 837.420121z" p-id="4949" fill="#707070"></path><path d="M513.398741 768.577741c-86.843568 0-173.808766 0-260.652334 0-25.298967 0-29.312745-4.013778-29.312745-29.312745 0.12163-108.980164 0.243259-217.960328 0.486519-327.062121 0-22.988003 4.743556-27.73156 27.60993-27.73156 174.295284 0 348.712199 0 523.007483 0 23.231263 0 27.974819 4.621927 28.096449 27.366671 0.364889 109.588312 0.608148 219.054995 0.729778 328.643307 0 23.474522-4.865186 27.974819-29.069486 28.096449C687.207507 768.577741 600.242309 768.577741 513.398741 768.577741zM764.077444 730.021143c0-103.628459 0-205.189215 0-306.628341-168.213802 0-335.089678 0-501.843924 0 0 103.020311 0 204.581067 0 306.628341C430.082433 730.021143 596.59342 730.021143 764.077444 730.021143z" p-id="4950" fill="#707070"></path><path d="M515.709704 675.65269c-6.689631 4.743556-12.892743 10.095261-19.947262 13.86578-23.231263 12.284594-46.340896 11.189928-67.747714-3.770519-23.596152-16.541632-34.056301-40.745932-31.988597-68.96401 0.486519-6.081482 11.676446-15.690224 18.122817-15.933484 6.324742-0.243259 14.352298 8.514075 18.974225 15.203706 3.648889 5.351704 2.067704 13.86578 4.621927 20.312151 4.865186 12.284594 13.86578 23.961041 27.366671 21.041929 9.973631-2.067704 18.974225-12.162965 26.393633-20.433781 3.648889-4.135408 3.040741-12.284594 4.013778-18.609336 1.702815-12.041335 8.635705-19.339114 20.433781-19.095855 10.703409 0.243259 17.636299 6.81126 19.095855 18.487706 0.851408 7.419408 1.094667 16.663262 5.473334 21.528448 7.05452 7.905927 17.028151 17.39304 26.150374 17.757928 8.149186 0.243259 18.122817-9.730372 24.569189-17.514669 4.257038-5.108445 4.013778-14.230669 5.351704-21.650077 2.189334-11.798076 8.878964-18.974225 21.041929-18.122817 12.041335 0.973037 18.366077 8.757335 17.879558 21.041929-1.216296 31.01556-13.379261 56.192897-42.083858 70.058677-26.758522 12.892743-51.81423 7.419408-73.707566-12.527854C518.507186 677.477135 517.16926 676.747357 515.709704 675.65269z" p-id="4951" fill="#707070"></path><path d="M729.777883 559.618007c0.364889 18.366077-14.595558 28.461337-28.461337 20.55541-37.097042-21.163559-73.585937-43.421784-109.953201-65.801639-9.608742-5.959853-11.676446-15.690224-6.081482-25.542226 5.716593-10.095261 15.811854-12.771113 25.177337-7.419408 37.461931 21.650077 74.558974 43.908303 111.412757 66.653047C726.128994 550.860672 728.196698 557.307044 729.777883 559.618007z" p-id="4952" fill="#707070"></path><path d="M413.175912 488.951182c3.40563 3.40563 12.162965 8.149186 13.136002 13.987409 1.094667 6.93289-2.554223 18.974225-7.905927 21.650077-32.231857 16.541632-65.315121 31.380449-98.520014 46.097636-10.095261 4.500297-21.163559 1.094667-23.717781-9.852001-1.702815-7.176149 1.337926-20.67704 6.446371-23.352892 33.204894-17.028151 67.504454-31.745338 101.439126-47.192303C405.513244 489.68096 407.216059 489.802589 413.175912 488.951182z" p-id="4953" fill="#707070"></path></svg>