<?xml version="1.0" standalone="no"?><!DOCTYPE svg PUBLIC "-//W3C//DTD SVG 1.1//EN" "http://www.w3.org/Graphics/SVG/1.1/DTD/svg11.dtd"><svg t="1533251580946" class="icon" style="" viewBox="0 0 1024 1024" version="1.1" xmlns="http://www.w3.org/2000/svg" p-id="8369" xmlns:xlink="http://www.w3.org/1999/xlink" width="200" height="200"><defs><style type="text/css"></style></defs><path d="M476.16 478.528H221.888c-37.76 0-51.968-26.496-32-58.624L404.48 106.496c39.552-63.744 71.552-54.72 71.552 19.84v352.192z m1.28 67.776v254.144c0 37.76-26.56 51.968-58.688 32L105.344 617.92c-63.68-39.552-54.72-71.552 19.84-71.552H477.44z m67.2-0.832h254.144c37.76 0 52.032 26.496 32.064 58.624l-214.656 313.408c-39.488 63.744-71.552 54.72-71.552-19.84V545.472z m1.92-68.672V222.72c0-37.76 26.56-51.968 58.688-32l313.408 214.592c63.68 39.552 54.72 71.552-19.84 71.552H546.56z" p-id="8370" fill="#818181"></path></svg>