<?xml version="1.0" standalone="no"?><!DOCTYPE svg PUBLIC "-//W3C//DTD SVG 1.1//EN" "http://www.w3.org/Graphics/SVG/1.1/DTD/svg11.dtd"><svg t="1533512600785" class="icon" style="" viewBox="0 0 1024 1024" version="1.1" xmlns="http://www.w3.org/2000/svg" p-id="19689" xmlns:xlink="http://www.w3.org/1999/xlink" width="50" height="50"><defs><style type="text/css"></style></defs><path d="M886.272 408.064c-1.024-38.912-32.768-70.656-71.68-70.656h-111.104l28.16-28.16c40.96-40.96 40.96-108.032 0-149.504l-3.072-3.072c-19.968-19.968-46.592-30.72-74.752-30.72s-54.784 10.752-74.752 30.72l-67.584 67.584-67.584-67.584c-19.968-19.968-46.592-30.72-74.752-30.72s-54.784 10.752-74.752 30.72l-3.072 3.072c-40.96 40.96-40.96 108.032 0 149.504l28.16 28.16h-110.592c-39.424 0-71.168 31.744-71.168 71.168v105.984c0 37.376 28.672 68.096 65.536 71.168v240.64c0 39.424 31.744 71.168 71.168 71.168h484.864c39.424 0 71.168-31.744 71.168-71.168v-242.176c31.744-7.168 55.808-35.328 55.808-69.632V408.064z" fill="" p-id="19690"></path><path d="M327.68 272.896c-20.992-20.992-20.992-55.808 0-76.8l3.072-3.072c10.24-10.24 24.064-15.872 38.4-15.872s28.16 5.632 38.4 15.872l103.424 103.424 103.424-103.424c10.24-10.24 24.064-15.872 38.4-15.872s28.16 5.632 38.4 15.872l3.072 3.072c20.992 20.992 20.992 55.808 0 76.8l-64 64h-239.104l-63.488-64z" fill="#FFFFFF" p-id="19691"></path><path d="M835.072 514.56c0 11.264-9.216 19.968-19.968 19.968h-35.84v291.84c0 11.264-9.216 19.968-19.968 19.968h-484.864c-11.264 0-19.968-8.704-19.968-19.968v-291.84h-45.568c-11.264 0-19.968-8.704-19.968-19.968v-105.984c0-11.264 9.216-19.968 19.968-19.968h605.696c10.752 0 19.968 9.216 20.48 20.48v105.472z" fill="#FC9ABB" p-id="19692"></path><path d="M599.04 445.952c-37.376 0-68.096 22.528-87.04 40.96-18.944-18.944-49.152-40.96-87.552-40.96-62.976 0-115.2 50.688-118.784 115.2-2.048 38.912 13.312 66.56 24.576 83.968 15.872 24.064 54.784 60.416 86.016 86.016 69.12 57.344 88.576 57.344 95.744 57.344 41.472 0 158.72-108.544 181.248-143.36 11.264-17.408 26.624-45.056 24.576-84.48-4.096-64-56.32-114.688-118.784-114.688z" fill="" p-id="19693"></path><path d="M650.24 617.472c-21.504 33.28-112.128 109.056-138.24 119.296-26.624-10.752-117.248-86.528-138.752-119.296-12.288-18.944-16.896-34.816-16.384-53.248 2.048-36.864 32.256-66.56 67.584-66.56 30.208 0 57.856 31.232 66.048 43.008 4.608 7.168 12.288 11.264 20.992 11.264 8.192 0 16.384-4.096 21.504-10.752 8.704-12.288 37.376-43.52 66.56-43.52 35.328 0 65.536 29.696 67.584 66.048 0.512 18.432-4.608 34.816-16.896 53.76z" fill="#FC9ABB" p-id="19694"></path><path d="M759.296 897.536h-484.864c-39.424 0-71.168-31.744-71.168-71.168v-240.64c-36.864-3.072-65.536-33.792-65.536-71.168v-105.984c0-39.424 31.744-71.168 71.168-71.168h605.696c38.912 0 70.656 31.744 71.68 70.656v106.496c0 33.792-24.064 62.464-55.808 69.632v242.176c0 38.912-32.256 71.168-71.168 71.168z m-550.4-508.928c-11.264 0-19.968 8.704-19.968 19.968v105.984c0 11.264 8.704 19.968 19.968 19.968h45.568v291.84c0 11.264 8.704 19.968 19.968 19.968h484.864c11.264 0 19.968-8.704 19.968-19.968v-291.84h35.84c11.264 0 19.968-8.704 19.968-19.968v-105.984c-0.512-11.264-9.728-20.48-20.48-20.48h-605.696v0.512z" fill="#F5335C" p-id="19695"></path><path d="M641.536 388.608c-6.656 0-13.312-2.56-17.92-7.68-10.24-10.24-10.24-26.112 0-36.352l71.68-71.68c20.992-20.992 20.992-55.808 0-76.8l-3.072-3.072c-10.24-10.24-24.064-15.872-38.4-15.872s-28.16 5.632-38.4 15.872l-103.424 103.424-103.424-103.424c-10.24-10.24-24.064-15.872-38.4-15.872s-28.16 5.632-38.4 15.872l-3.072 3.072c-20.992 20.992-20.992 55.808 0 76.8l71.68 71.68c10.24 10.24 10.24 26.112 0 36.352s-26.112 10.24-36.352 0l-71.68-71.68c-40.96-40.96-40.96-108.032 0-149.504l3.072-3.072c19.968-19.968 46.592-30.72 74.752-30.72s54.784 10.752 74.752 30.72l67.584 67.584 67.584-67.584c19.968-19.968 46.592-30.72 74.752-30.72s54.784 10.752 74.752 30.72l3.072 3.072c40.96 40.96 40.96 108.032 0 149.504l-71.68 71.68c-6.656 5.12-12.8 7.68-19.456 7.68z" fill="#F5335C" p-id="19696"></path><path d="M512 788.48c-7.168 0-26.624 0-95.744-57.344-31.232-25.6-70.144-61.952-86.016-86.016-11.264-17.408-26.624-45.056-24.576-83.968 3.584-64.512 55.808-115.2 118.784-115.2 37.888 0 68.608 22.528 87.552 40.96 18.944-18.432 49.664-40.96 87.04-40.96 62.976 0 114.688 50.176 118.784 114.688 2.048 39.424-13.312 67.072-24.576 84.48-22.528 34.816-139.776 143.36-181.248 143.36z m-87.552-291.328c-35.328 0-65.536 29.696-67.584 66.56-1.024 18.432 4.096 34.816 16.384 53.248 21.504 33.28 112.64 108.544 138.752 119.296 26.112-10.752 116.736-86.016 138.24-119.296 12.288-18.944 17.408-34.816 16.384-53.76-2.048-36.352-32.768-66.048-67.584-66.048-28.672 0-57.856 31.744-66.56 43.52-5.12 6.656-12.8 10.752-21.504 10.752-8.192 0-16.384-4.608-20.992-11.264-7.68-11.776-35.328-43.008-65.536-43.008z" fill="#FFFFFF" p-id="19697"></path></svg>