<?xml version="1.0" standalone="no"?><!DOCTYPE svg PUBLIC "-//W3C//DTD SVG 1.1//EN" "http://www.w3.org/Graphics/SVG/1.1/DTD/svg11.dtd"><svg t="1533464065761" class="icon" style="" viewBox="0 0 1024 1024" version="1.1" xmlns="http://www.w3.org/2000/svg" p-id="8124" xmlns:xlink="http://www.w3.org/1999/xlink" width="50" height="50"><defs><style type="text/css"></style></defs><path d="M195.2 246.4c0-35.2 28.8-67.2 67.2-67.2h396.8l169.6 169.6v422.4c0 35.2-28.8 67.2-67.2 67.2H259.2C224 838.4 192 809.6 192 771.2l3.2-524.8z" fill="#FF8693" p-id="8125"></path><path d="M828.8 348.8h-153.6c-9.6 0-16-6.4-16-16V179.2l169.6 169.6z" fill="#FC6376" p-id="8126"></path><path d="M598.4 528L448 636.8c-9.6 6.4-22.4 3.2-28.8-6.4-3.2-3.2-3.2-9.6-3.2-12.8v-217.6c0-12.8 9.6-25.6 22.4-25.6 3.2 0 9.6 0 12.8 3.2l150.4 108.8c9.6 6.4 12.8 22.4 6.4 35.2-3.2 3.2-6.4 6.4-9.6 6.4" fill="#FFD778" p-id="8127"></path><path d="M268.8 470.4h48v-70.4H268.8zM707.2 470.4h48v-70.4h-48zM268.8 617.6h48V544H268.8zM707.2 617.6h48V544h-48zM268.8 739.2h48v-73.6H268.8zM707.2 739.2h48v-73.6h-48zM268.8 348.8h48V275.2H268.8z" fill="#FCC8D1" p-id="8128"></path></svg>