<?xml version="1.0" standalone="no"?><!DOCTYPE svg PUBLIC "-//W3C//DTD SVG 1.1//EN" "http://www.w3.org/Graphics/SVG/1.1/DTD/svg11.dtd"><svg t="1533276611936" class="icon" style="" viewBox="0 0 1024 1024" version="1.1" xmlns="http://www.w3.org/2000/svg" p-id="4489" xmlns:xlink="http://www.w3.org/1999/xlink" width="50" height="50"><defs><style type="text/css"></style></defs><path d="M127.260917 862.823134c-42.73122 0-77.494978-32.878828-77.494978-73.290213l0-542.198789c0-40.413432 34.764781-73.291237 77.494978-73.291237l762.869654 0c42.73122 0 77.494978 32.877805 77.494978 73.291237l0 542.198789c0 40.411385-34.764781 73.290213-77.494978 73.290213L127.260917 862.823134zM127.260917 238.628866c-4.682649 0-8.492418 3.904936-8.492418 8.705266l0 542.198789c0 4.799306 3.809769 8.705266 8.492418 8.705266l762.869654 0c4.682649 0 8.493441-3.904936 8.493441-8.705266l0-542.198789c0-4.800329-3.810792-8.705266-8.493441-8.705266L127.260917 238.628866z" p-id="4490" fill="#ffffff"></path><path d="M756.3251 523.918447c0 19.580964-15.873526 35.45449-35.453467 35.45449l-56.487525 0c-19.580964 0-35.453467-15.873526-35.453467-35.45449l0 0c0-19.580964 15.873526-35.45449 35.453467-35.45449l56.487525 0C740.451574 488.463957 756.3251 504.337483 756.3251 523.918447L756.3251 523.918447z" p-id="4491" fill="#ffffff"></path><path d="M822.325279 355.744213c0 19.497053-15.804964 35.303041-35.302017 35.303041L212.976114 391.047254c-19.497053 0-35.302017-15.804964-35.302017-35.303041l0 0c0-19.497053 15.804964-35.302017 35.302017-35.302017l574.047148 0C806.519292 320.442196 822.325279 336.24716 822.325279 355.744213L822.325279 355.744213z" p-id="4492" fill="#ffffff"></path><path d="M591.068312 523.918447c0 19.498076-15.804964 35.303041-35.302017 35.303041L212.976114 559.221488c-19.497053 0-35.302017-15.804964-35.302017-35.303041l0 0c0-19.497053 15.804964-35.302017 35.302017-35.302017l342.79018 0C575.263347 488.61643 591.068312 504.421394 591.068312 523.918447L591.068312 523.918447z" p-id="4493" fill="#ffffff"></path><path d="M822.325279 669.220764c0 19.4991-15.804964 35.304064-35.302017 35.304064L444.232059 704.524828c-19.497053 0-35.302017-15.804964-35.302017-35.304064l0 0c0-19.497053 15.804964-35.302017 35.302017-35.302017l342.79018 0C806.519292 633.918747 822.325279 649.723711 822.325279 669.220764L822.325279 669.220764z" p-id="4494" fill="#ffffff"></path></svg>