<?xml version="1.0" standalone="no"?><!DOCTYPE svg PUBLIC "-//W3C//DTD SVG 1.1//EN" "http://www.w3.org/Graphics/SVG/1.1/DTD/svg11.dtd"><svg t="1533512437148" class="icon" style="" viewBox="0 0 1024 1024" version="1.1" xmlns="http://www.w3.org/2000/svg" p-id="5429" xmlns:xlink="http://www.w3.org/1999/xlink" width="50" height="50"><defs><style type="text/css"></style></defs><path d="M318.4 244.8c0.8-80.8 61.6-152 141.6-165.6 93.6-16 180 43.2 199.2 136 1.6 8 3.2 16 3.2 24 0.8 21.6 0 44 0 66.4h-344v-4c0-18.4-0.8-37.6 0-56.8" fill="#FBD956" p-id="5430"></path><path d="M684.8 328H298.4l-1.6-20.8c0-2.4-0.8-4-0.8-5.6V244C296.8 152.8 365.6 72 456 56c12-1.6 23.2-2.4 34.4-2.4 93.6 0 172 64 191.2 156.8 2.4 10.4 3.2 20 3.2 28V328z m-343.2-45.6h297.6v-43.2c0-5.6-0.8-12-2.4-20-14.4-70.4-74.4-120-146.4-120-8.8 0-17.6 0.8-26.4 2.4-68.8 12-121.6 72.8-122.4 142.4v38.4z" fill="#444444" p-id="5431"></path><path d="M839.2 970.4h-712c-21.6 0-37.6-17.6-35.2-39.2L159.2 336c1.6-14.4 17.6-26.4 35.2-26.4h577.6c17.6 0 33.6 12 35.2 26.4l67.2 596c2.4 20.8-13.6 38.4-35.2 38.4z" fill="#FBD956" p-id="5432"></path><path d="M839.2 994.4h-712c-17.6 0-33.6-7.2-44.8-20-11.2-12-16-28.8-14.4-45.6l67.2-596c3.2-26.4 28.8-47.2 59.2-47.2h577.6c30.4 0 56 20.8 59.2 47.2l67.2 596c1.6 16.8-3.2 33.6-14.4 45.6-11.2 12.8-28 20-44.8 20zM194.4 333.6c-6.4 0-11.2 4-11.2 4.8l-67.2 595.2c-0.8 4 0.8 7.2 2.4 8.8 2.4 2.4 5.6 4 8.8 4h712c4 0 7.2-1.6 8.8-4 1.6-1.6 3.2-4 2.4-8.8l-67.2-596c-0.8-0.8-4.8-4.8-11.2-4.8H194.4z" fill="#444444" p-id="5433"></path><path d="M636.8 410.4m-39.2 0a39.2 39.2 0 1 0 78.4 0 39.2 39.2 0 1 0-78.4 0Z" fill="#444444" p-id="5434"></path><path d="M320.8 410.4m-39.2 0a39.2 39.2 0 1 0 78.4 0 39.2 39.2 0 1 0-78.4 0Z" fill="#444444" p-id="5435"></path></svg>