<?xml version="1.0" standalone="no"?><!DOCTYPE svg PUBLIC "-//W3C//DTD SVG 1.1//EN" "http://www.w3.org/Graphics/SVG/1.1/DTD/svg11.dtd"><svg t="1533193899788" class="icon" style="" viewBox="0 0 1024 1024" version="1.1" xmlns="http://www.w3.org/2000/svg" p-id="17682" xmlns:xlink="http://www.w3.org/1999/xlink" width="200" height="200"><defs><style type="text/css"></style></defs><path d="M972.288 520.704h-229.376v408.064h230.4c27.648 0 50.688-23.04 50.688-50.688v-305.152c0-29.184-23.04-52.224-51.712-52.224z" p-id="17683" fill="#f97297"></path><path d="M0 416.768v460.8c0 28.16 22.528 50.688 50.688 50.688H302.08v-563.2H51.712c-28.672 0.512-51.712 23.552-51.712 51.712z" p-id="17684" fill="#f97297"></path><path d="M646.144 84.992H398.848c-27.648 0-50.688 23.04-50.688 51.2v792.576h348.16V136.192c0.512-28.16-22.016-51.2-50.176-51.2z m-35.84 520.704l-31.232 29.696c-3.072 2.56-4.096 6.656-3.584 10.752l6.656 41.984c1.536 9.728-8.704 17.408-17.408 12.288l-37.376-20.48c-3.584-2.048-7.68-2.048-11.264 0l-37.888 19.456c-8.704 4.608-18.944-3.072-17.408-12.8l7.68-41.984c0.512-4.096-0.512-7.68-3.584-10.752l-30.72-30.208c-7.168-7.168-3.072-18.944 6.656-20.48l43.008-6.144c4.096-0.512 7.168-3.072 9.216-6.656l18.944-37.888c4.608-8.704 17.408-8.704 21.504 0l18.432 38.912c1.536 3.584 5.12 6.144 9.216 6.656l41.984 6.656c10.752 1.536 14.336 13.824 7.168 20.992z" p-id="17685" fill="#f97297"></path></svg>