<?xml version="1.0" standalone="no"?><!DOCTYPE svg PUBLIC "-//W3C//DTD SVG 1.1//EN" "http://www.w3.org/Graphics/SVG/1.1/DTD/svg11.dtd"><svg t="1533275597671" class="icon" style="" viewBox="0 0 1024 1024" version="1.1" xmlns="http://www.w3.org/2000/svg" p-id="682" xmlns:xlink="http://www.w3.org/1999/xlink" width="50" height="50"><defs><style type="text/css"></style></defs><path d="M723.346499 512.63752l-352.457354 281.972023 0-563.933813L723.346499 512.63752zM426.833295 678.218696l206.973912-165.581176-206.973912-165.570943L426.833295 678.218696z" p-id="683" fill="#ffffff"></path><path d="M286.978037 904.236336l447.542966 0c92.53758 0 167.822217-75.284637 167.822217-167.822217l0-447.542966c0-92.547813-75.284637-167.822217-167.822217-167.822217l-447.542966 0c-92.547813 0-167.80175 75.274404-167.80175 167.822217l0 447.542966C119.176286 828.951699 194.430224 904.236336 286.978037 904.236336zM958.287369 288.871153l0 447.542966c0 123.380028-100.386338 223.766366-223.766366 223.766366l-447.542966 0c-123.380028 0-223.756133-100.386338-223.756133-223.766366l0-447.542966c0-123.380028 100.376105-223.766366 223.756133-223.766366l447.542966 0C857.901031 65.104787 958.287369 165.491125 958.287369 288.871153z" p-id="684" fill="#ffffff"></path></svg>