<?xml version="1.0" standalone="no"?><!DOCTYPE svg PUBLIC "-//W3C//DTD SVG 1.1//EN" "http://www.w3.org/Graphics/SVG/1.1/DTD/svg11.dtd"><svg t="1533275968124" class="icon" style="" viewBox="0 0 1024 1024" version="1.1" xmlns="http://www.w3.org/2000/svg" p-id="1590" xmlns:xlink="http://www.w3.org/1999/xlink" width="50" height="50"><defs><style type="text/css"></style></defs><path d="M960.225968 105.811908c0-23.198352-18.822442-42.020022-42.043234-42.020022L105.816243 63.791885c-23.220792 0-42.043234 18.821671-42.043234 42.020022l0 812.355719c0 23.219841 18.822442 42.041512 42.043234 42.041512l812.366491 0c23.220792 0 42.043234-18.821671 42.043234-42.041512L960.225968 105.811908 960.225968 105.811908zM857.690579 844.370877c0 7.330966-5.952816 13.30605-13.307619 13.30605L179.594526 857.676927c-7.332289 0-13.285105-5.975085-13.285105-13.30605L166.309421 179.608657c0-7.353478 5.952816-13.30605 13.285105-13.30605l664.788434 0c7.354803 0 13.307619 5.952572 13.307619 13.30605L857.690579 844.370877z" fill="#ffffff" p-id="1591"></path><path d="M385.388811 661.892869c0 5.186116 2.604421 10.263761 7.35378 13.196557 4.749359 2.932796 10.440198 2.99931 15.079035 0.678452L696.892911 531.238157c5.077853-2.538823 8.579751-7.812943 8.579751-13.876032 0-6.062066-3.501897-11.314697-8.579751-13.853519L407.821626 358.979908c-4.63986-2.319835-10.329676-2.254344-15.079035 0.678452-4.749359 2.911306-7.35378 7.987928-7.35378 13.175067L385.388811 661.892869 385.388811 661.892869z" fill="#ffffff" p-id="1592"></path></svg>