<?xml version="1.0" standalone="no"?><!DOCTYPE svg PUBLIC "-//W3C//DTD SVG 1.1//EN" "http://www.w3.org/Graphics/SVG/1.1/DTD/svg11.dtd"><svg t="1533290176301" class="icon" style="" viewBox="0 0 1024 1024" version="1.1" xmlns="http://www.w3.org/2000/svg" p-id="45430" xmlns:xlink="http://www.w3.org/1999/xlink" width="50" height="50"><defs><style type="text/css"></style></defs><path d="M511.8 63.946c-247.313 0-447.788 200.475-447.788 447.784 0 33.368 3.764 65.838 10.683 97.123C119.073 809.442 297.859 959.514 511.8 959.514c213.934 0 392.716-150.069 437.097-350.661 6.915-31.285 10.683-63.755 10.683-97.123 0-247.309-200.478-447.784-447.78-447.784z" fill="#F9C76E" p-id="45431"></path><path d="M663.416 719.108c0 1.327-0.752 2.54-1.941 3.13a3.484 3.484 0 0 1-3.662-0.354L517.731 615.236 375.648 721.958a3.494 3.494 0 0 1-3.658 0.331 3.48 3.48 0 0 1-1.929-3.123V307.503a3.488 3.488 0 0 1 3.493-3.489h286.371a3.49 3.49 0 0 1 3.493 3.489v411.605z" fill="#E46452" p-id="45432"></path><path d="M663.416 356.007v-49.89c0-1.162-1.563-2.099-3.493-2.099H373.549c-1.929 0-3.493 0.937-3.493 2.099v49.89h293.36z" fill="#C06452" p-id="45433"></path><path d="M516.738 415.628l14.475 44.566h46.855l-37.901 27.532 14.479 44.563-37.908-27.536-37.908 27.536 14.475-44.563-37.9-27.532h46.854z" fill="#F9C76E" p-id="45434"></path></svg>