<?xml version="1.0" standalone="no"?><!DOCTYPE svg PUBLIC "-//W3C//DTD SVG 1.1//EN" "http://www.w3.org/Graphics/SVG/1.1/DTD/svg11.dtd"><svg t="1533193742073" class="icon" style="" viewBox="0 0 1024 1024" version="1.1" xmlns="http://www.w3.org/2000/svg" p-id="15934" xmlns:xlink="http://www.w3.org/1999/xlink" width="200" height="200"><defs><style type="text/css"></style></defs><path d="M938.394297 866.129436l-224.914516-214.484979c53.982472-62.410422 86.640266-143.775544 86.640266-232.769414 0-196.60475-159.37994-355.98469-355.98469-355.98469s-355.98469 159.37994-355.98469 355.98469S247.529583 774.860756 444.134333 774.860756c88.663342 0 169.752172-32.41834 232.07152-86.042655l225.870284 215.395722c10.165524 9.69378 26.152637 9.69378 36.31816 0l0 0C949.265902 893.846708 949.265902 876.497575 938.394297 866.129436zM127.703497 418.876066c0-174.760233 141.671627-316.430836 316.430836-316.430836S760.566192 244.115833 760.566192 418.876066 618.894565 735.306902 444.134333 735.306902 127.703497 593.636299 127.703497 418.876066z" p-id="15935" fill="#bfbfbf"></path></svg>