<?xml version="1.0" standalone="no"?><!DOCTYPE svg PUBLIC "-//W3C//DTD SVG 1.1//EN" "http://www.w3.org/Graphics/SVG/1.1/DTD/svg11.dtd"><svg t="1533512557804" class="icon" style="" viewBox="0 0 1024 1024" version="1.1" xmlns="http://www.w3.org/2000/svg" p-id="16236" xmlns:xlink="http://www.w3.org/1999/xlink" width="50" height="50"><defs><style type="text/css"></style></defs><path d="M995.602 360.848h-153.426c0 46.488-40.606 84.176-90.692 84.176s-90.692-37.688-90.692-84.176H503.66c0 46.488-40.604 84.176-90.692 84.176s-90.692-37.688-90.692-84.176H161.4c-15.684 0-28.398 9.866-28.398 22.034v615.084c0 12.166 12.714 22.034 28.398 22.034h834.202c15.684 0 28.398-9.868 28.398-22.034V382.882c0-12.168-12.714-22.034-28.398-22.034zM307.376 653.44c-14.11 0-25.548-14.698-25.548-32.832v-5.472c0-18.132 11.438-32.832 25.548-32.832h93.676c14.11 0 25.548 14.7 25.548 32.832v5.472c0 18.134-11.44 32.832-25.548 32.832h-93.676z m243.772-2.964c-12.932 0-23.42-13.474-23.42-30.098v-5.016c0-16.622 10.488-30.098 23.42-30.098h85.87c12.934 0 23.42 13.476 23.42 30.098v5.016c0 16.624-10.486 30.098-23.42 30.098h-85.87z m226.74 0c-12.934 0-23.418-13.474-23.418-30.098v-5.016c0-16.622 10.484-30.098 23.418-30.098h85.87c12.932 0 23.42 13.476 23.42 30.098v5.016c0 16.624-10.488 30.098-23.42 30.098h-85.87z m-470.512 146.56c-14.11 0-25.548-14.7-25.548-32.834v-5.472c0-18.13 11.438-32.832 25.548-32.832h93.676c14.11 0 25.548 14.702 25.548 32.832v5.472c0 18.134-11.44 32.834-25.548 32.834h-93.676z m243.772-2.966c-12.932 0-23.42-13.472-23.42-30.096v-5.018c0-16.622 10.488-30.096 23.42-30.096h85.87c12.934 0 23.42 13.474 23.42 30.096v5.018c0 16.624-10.486 30.096-23.42 30.096h-85.87z m226.74 0c-12.934 0-23.418-13.472-23.418-30.096v-5.018c0-16.622 10.484-30.096 23.418-30.096h85.87c12.932 0 23.42 13.474 23.42 30.096v5.018c0 16.624-10.488 30.096-23.42 30.096h-85.87z m-470.512 139.972c-14.11 0-25.548-14.7-25.548-32.832v-5.472c0-18.132 11.438-32.834 25.548-32.834h93.676c14.11 0 25.548 14.702 25.548 32.834v5.472c0 18.132-11.44 32.832-25.548 32.832h-93.676z m243.772-2.966c-12.932 0-23.42-13.472-23.42-30.096v-5.018c0-16.622 10.488-30.096 23.42-30.096h85.87c12.934 0 23.42 13.474 23.42 30.096v5.018c0 16.624-10.486 30.096-23.42 30.096h-85.87z m226.74 0c-12.934 0-23.418-13.472-23.418-30.096v-5.018c0-16.622 10.484-30.096 23.418-30.096h85.87c12.932 0 23.42 13.474 23.42 30.096v5.018c0 16.624-10.488 30.096-23.42 30.096h-85.87z" fill="#FCE6BC" p-id="16237"></path><path d="M447.89 387.66c0 13.096-15.838 23.712-35.374 23.712h-5.896c-19.536 0-35.374-10.616-35.374-23.712v-86.946c0-13.096 15.838-23.712 35.374-23.712h5.896c19.536 0 35.374 10.616 35.374 23.712v86.946zM792.792 387.66c0 13.096-15.84 23.712-35.376 23.712h-5.896c-19.536 0-35.374-10.616-35.374-23.712v-86.946c0-13.096 15.838-23.712 35.374-23.712h5.896c19.536 0 35.376 10.616 35.376 23.712v86.946z" fill="#FCE6BC" p-id="16238"></path><path d="M924.974 978.222h-865.2c-27.27 0-49.454-20.016-49.454-44.62V246.278c0-24.604 22.184-44.622 49.454-44.622h166.856c11.046 0 20 8.954 20 20 0 40.836 33.224 74.06 74.064 74.06 40.836 0 74.06-33.224 74.06-74.06 0-11.046 8.954-20 20-20h162.974c11.044 0 20 8.954 20 20 0 40.836 33.222 74.06 74.058 74.06 40.838 0 74.062-33.224 74.062-74.06 0-11.046 8.956-20 20-20h159.126c27.27 0 49.456 20.016 49.456 44.622v687.326c0 24.604-22.186 44.618-49.456 44.618z m-865.2-736.566c-6.204 0-9.454 3.434-9.454 4.622v687.326c0 1.188 3.25 4.62 9.454 4.62h865.2c6.204 0 9.456-3.432 9.456-4.62V246.278c0-1.188-3.252-4.622-9.456-4.622h-140.88c-9.48 53.39-56.234 94.06-112.306 94.06-56.07 0-102.822-40.67-112.302-94.06H433c-9.482 53.39-56.232 94.06-112.304 94.06-56.074 0-102.826-40.67-112.308-94.06H59.774z m241.934 569.852h-97.158c-11.046 0-20-8.956-20-20s8.954-20 20-20h97.158c11.046 0 20 8.956 20 20s-8.954 20-20 20z m479.9-3.312h-89.058c-11.044 0-20-8.956-20-20s8.956-20 20-20h89.058c11.044 0 20 8.956 20 20s-8.956 20-20 20z m-235.166 0h-89.06c-11.046 0-20-8.956-20-20s8.954-20 20-20h89.06c11.044 0 20 8.956 20 20s-8.956 20-20 20z m-244.734-149.786h-97.158c-11.046 0-20-8.956-20-20s8.954-20 20-20h97.158c11.046 0 20 8.956 20 20s-8.954 20-20 20z m479.9-3.314h-89.058c-11.044 0-20-8.956-20-20s8.956-20 20-20h89.058c11.044 0 20 8.956 20 20s-8.956 20-20 20z m-235.166 0h-89.06c-11.046 0-20-8.956-20-20s8.954-20 20-20h89.06c11.044 0 20 8.956 20 20s-8.956 20-20 20z m-244.734-157.144h-97.158c-11.046 0-20-8.954-20-20s8.954-20 20-20h97.158c11.046 0 20 8.954 20 20s-8.954 20-20 20z m479.9-3.312h-89.058c-11.044 0-20-8.954-20-20s8.956-20 20-20h89.058c11.044 0 20 8.954 20 20s-8.956 20-20 20z m-235.166 0h-89.06c-11.046 0-20-8.954-20-20s8.954-20 20-20h89.06c11.044 0 20 8.954 20 20s-8.956 20-20 20z" fill="#FCAD3A" p-id="16239"></path><path d="M318.484 259.84c-11.046 0-20-8.954-20-20V142.68c0-11.046 8.954-20 20-20s20 8.954 20 20v97.16c0 11.046-8.954 20-20 20zM676.204 259.84c-11.044 0-20-8.954-20-20V142.68c0-11.046 8.956-20 20-20s20 8.954 20 20v97.16c0 11.046-8.956 20-20 20z" fill="#FCAD3A" p-id="16240"></path></svg>