<?xml version="1.0" standalone="no"?><!DOCTYPE svg PUBLIC "-//W3C//DTD SVG 1.1//EN" "http://www.w3.org/Graphics/SVG/1.1/DTD/svg11.dtd"><svg t="1533193717811" class="icon" style="" viewBox="0 0 1024 1024" version="1.1" xmlns="http://www.w3.org/2000/svg" p-id="15020" xmlns:xlink="http://www.w3.org/1999/xlink" width="200" height="200"><defs><style type="text/css"></style></defs><path d="M509.782495 417.027975c-26.412556 0-47.823192 21.408589-47.823192 47.821145 0 26.41665 21.410636 47.824215 47.823192 47.824215 26.411533 0 47.824215-21.408589 47.824215-47.824215C557.606711 438.436564 536.195052 417.027975 509.782495 417.027975zM318.487681 417.027975c-26.412556 0-47.824215 21.408589-47.824215 47.821145 0 26.41665 21.410636 47.824215 47.824215 47.824215 26.411533 0 47.824215-21.408589 47.824215-47.824215C366.311897 438.436564 344.899214 417.027975 318.487681 417.027975zM701.078333 417.027975c-26.411533 0-47.824215 21.408589-47.824215 47.821145 0 26.41665 21.411659 47.824215 47.824215 47.824215 26.412556 0 47.824215-21.408589 47.824215-47.824215C748.901525 438.436564 727.490889 417.027975 701.078333 417.027975zM509.782495 130.086777c-211.298404 0-382.590652 149.878542-382.590652 334.762343 0 105.665575 56.084343 199.747323 143.471622 261.099646l0 169.317267 167.610392-101.70538c23.191188 3.841491 47.043433 6.053879 71.50966 6.053879 211.298404 0 382.589628-149.878542 382.589628-334.766436C892.373147 279.964296 721.080899 130.086777 509.782495 130.086777zM509.782495 751.793388c-27.925003 0-54.900378-3.252067-80.83198-8.774851l-112.565728 67.659983 1.509377-110.915136c-86.312808-51.895951-142.878105-137.677663-142.878105-234.913241 0-158.468175 149.879566-286.938128 334.766436-286.938128S844.548932 306.380946 844.548932 464.84912C844.548932 623.326505 694.669366 751.793388 509.782495 751.793388z" p-id="15021" fill="#ffffff"></path></svg>