<?xml version="1.0" standalone="no"?><!DOCTYPE svg PUBLIC "-//W3C//DTD SVG 1.1//EN" "http://www.w3.org/Graphics/SVG/1.1/DTD/svg11.dtd"><svg t="1533464178747" class="icon" style="" viewBox="0 0 1024 1024" version="1.1" xmlns="http://www.w3.org/2000/svg" p-id="15680" xmlns:xlink="http://www.w3.org/1999/xlink" width="50" height="50"><defs><style type="text/css"></style></defs><path d="M746.401185 252.965926l3.830519 0.18963c147.759407 14.980741 257.630815 141.842963 257.630815 296.504888 0 153.562074-115.162074 281.448296-264.021334 296.523852l-3.811555 0.18963H305.758815C155.780741 838.826667 37.925926 705.668741 37.925926 549.660444c0-157.240889 119.087407-289.261037 274.204444-296.694518h434.270815z m-432.431407 75.794963C202.031407 334.165333 113.777778 432.014222 113.777778 549.679407c0 116.375704 86.926222 214.926222 192.986074 220.842667H738.038519c109.169778-12.022519 193.972148-106.81837 193.972148-220.86163 0-115.749926-80.213333-209.009778-187.600593-220.842666l-430.440296-0.056889z" fill="#F15A4A" p-id="15681"></path><path d="M548.238222 219.629037v51.844741l-66.787555 2.88237v-85.143704c0-66.88237 66.787556-66.88237 78.525629-66.88237 114.782815 0 114.782815-12.155259 114.782815-42.552889V19.152593h65.061926v78.848c0 3.982222-0.132741 7.755852-0.436148 11.320888-5.688889 70.97837-66.787556 65.403259-133.669926 71.566223-63.867259 0-57.457778 20.48-57.457778 38.72237z" fill="#F15A4A" p-id="15682"></path><path d="M529.275259 219.629037v51.844741l-66.787555 2.88237v-85.143704c0-66.88237 66.787556-66.88237 78.525629-66.88237 114.782815 0 114.782815-12.155259 114.782815-42.552889V19.152593h65.061926v78.848c0 3.982222-0.132741 7.755852-0.436148 11.320888-5.688889 70.97837-66.787556 65.403259-133.669926 71.566223-63.867259 0-57.457778 20.48-57.457778 38.72237z" fill="#F15A4A" p-id="15683"></path><path d="M619.557926 541.904593a36.484741 36.238222 90 1 0 72.476444 0 36.484741 36.238222 90 1 0-72.476444 0Z" fill="#F15A4A" p-id="15684"></path><path d="M343.950222 514.56v-84.878222a9.481481 9.481481 0 0 0-9.310815-9.386667h-34.797037c-5.12 0-9.310815 4.209778-9.310814 9.386667v84.878222H205.63437c-5.101037 0-9.386667 4.171852-9.386666 9.291852v34.816c0 5.12 4.209778 9.291852 9.386666 9.291852h84.897186v98.322963a9.481481 9.481481 0 0 0 9.291851 9.405629h34.816c5.12 0 9.291852-4.209778 9.291852-9.405629v-98.304H434.251852c5.101037 0 9.386667-4.171852 9.386667-9.291852v-34.816c0-5.12-4.190815-9.310815-9.386667-9.310815h-90.30163z" fill="#F15A4A" p-id="15685"></path><path d="M704.132741 627.029333a36.484741 36.238222 90 1 0 72.476444 0 36.484741 36.238222 90 1 0-72.476444 0Z" fill="#F15A4A" p-id="15686"></path><path d="M788.707556 541.904593a36.484741 36.238222 90 1 0 72.476444 0 36.484741 36.238222 90 1 0-72.476444 0Z" fill="#F15A4A" p-id="15687"></path><path d="M704.132741 456.779852a36.484741 36.238222 90 1 0 72.476444 0 36.484741 36.238222 90 1 0-72.476444 0Z" fill="#F15A4A" p-id="15688"></path></svg>