<?xml version="1.0" standalone="no"?><!DOCTYPE svg PUBLIC "-//W3C//DTD SVG 1.1//EN" "http://www.w3.org/Graphics/SVG/1.1/DTD/svg11.dtd"><svg t="1533512623566" class="icon" style="" viewBox="0 0 1024 1024" version="1.1" xmlns="http://www.w3.org/2000/svg" p-id="20416" xmlns:xlink="http://www.w3.org/1999/xlink" width="50" height="50"><defs><style type="text/css"></style></defs><path d="M987.528533 546.321067l-71.355733-106.752-0.904533-1.553067-1.262934-1.28-90.248533-90.231467-1.262933-1.28-1.570134-0.904533-110.523733-63.7952-1.553067-0.904533-1.723733-0.4608-123.272533-33.041067-1.7408-0.4608h-131.2256l-1.723734 0.4608-123.272533 33.041067-1.7408 0.4608-1.553067 0.904533-110.523733 63.7952-1.553067 0.904533-1.28 1.28-90.231466 90.231467-1.28 1.28-0.887467 1.553067-71.594667 106.939733v17.066667l14.370134 5.956266 278.784 115.473067 172.868266 71.611733 5.239467 2.167467 5.2224-2.167467 31.266133-12.9536L694.613333 685.0048l278.766934-115.473067 14.3872-5.956266-0.238934-17.2544z" fill="#996E28" p-id="20417"></path><path d="M689.152 655.138133l278.766933-115.473066-63.7952-110.523734-90.248533-90.248533-110.523733-63.7952-123.272534-33.041067h-127.607466l-123.2896 33.041067-110.506667 63.7952-90.248533 90.248533-63.812267 110.523734 278.766933 115.473066 172.885334 71.611734 31.2832-12.9536 141.602133-58.658134z" fill="#E8D4AB" p-id="20418"></path><path d="M580.078933 242.056533l123.272534 33.024 110.523733 63.812267 90.248533 90.248533 63.812267 110.523734-278.784 115.473066-141.653333 58.658134-31.2832 12.9536-172.885334-71.68-278.715733-115.4048 63.812267-110.523734 90.248533-90.248533 110.523733-63.812267 123.272534-33.024h127.624533m1.792-13.653333h-131.2256l-1.706667 0.4608-123.272533 33.024-1.706667 0.4608-1.553066 0.904533-110.523734 63.812267-1.553066 0.904533-1.262934 1.262934-90.3168 90.248533-1.262933 1.262933-0.904533 1.553067-63.812267 110.5408-7.7824 13.482667 14.3872 5.956266 278.766933 115.473067 172.885334 71.68 5.2224 2.167467 5.2224-2.167467 31.2832-12.9536 141.653333-58.658133 278.7328-115.541334 14.3872-5.956266-7.7824-13.482667-63.812267-110.523733-0.904533-1.553067-1.262933-1.262933-90.248534-90.248534-1.262933-1.262933-1.553067-0.904533-110.523733-63.812267-1.553067-0.904533-1.706666-0.4608L583.68 228.864l-1.706667-0.4608z" fill="#E8D4AB" p-id="20419"></path><path d="M516.266667 726.459733l-63.7952-484.676266h127.607466L516.266667 726.459733z" fill="#C13636" p-id="20420"></path><path d="M516.266667 726.459733l63.812266-484.676266 123.272534 33.024L516.266667 726.459733z" fill="#FF4743" p-id="20421"></path><path d="M516.266667 726.459733l187.0848-451.652266 110.523733 63.812266L516.266667 726.459733z" fill="#C13636" p-id="20422"></path><path d="M516.266667 726.459733l297.608533-387.84 90.248533 90.231467L516.266667 726.459733z" fill="#FF4743" p-id="20423"></path><path d="M516.266667 726.459733l387.857066-297.608533 63.7952 110.523733L516.266667 726.459733zM516.266667 726.459733L64.6144 539.374933l63.812267-110.523733L516.266667 726.459733z" fill="#C13636" p-id="20424"></path><path d="M516.266667 726.459733L128.426667 428.8512l90.248533-90.231467L516.266667 726.459733z" fill="#FF4743" p-id="20425"></path><path d="M516.266667 726.459733L218.6752 338.619733l110.506667-63.812266L516.266667 726.459733z" fill="#C13636" p-id="20426"></path><path d="M516.266667 726.459733L329.181867 274.807467l123.2896-33.024 63.7952 484.676266z" fill="#FF4743" p-id="20427"></path><path d="M343.381333 654.848a187.153067 187.153067 0 0 1 345.770667 0l-172.885333 71.68z" fill="#E8D4AB" p-id="20428"></path><path d="M343.381333 654.523733a187.153067 187.153067 0 0 1 345.770667 0l-172.885333 71.68z" fill="#E8D4AB" p-id="20429"></path></svg>