<?xml version="1.0" standalone="no"?><!DOCTYPE svg PUBLIC "-//W3C//DTD SVG 1.1//EN" "http://www.w3.org/Graphics/SVG/1.1/DTD/svg11.dtd"><svg t="1533370346427" class="icon" style="" viewBox="0 0 1052 1024" version="1.1" xmlns="http://www.w3.org/2000/svg" p-id="5081" xmlns:xlink="http://www.w3.org/1999/xlink" width="51.3671875" height="50"><defs><style type="text/css"></style></defs><path d="M799.303 304.055h-165.366l89.953-67.465c10.303-7.267 16.952-19.119 16.952-32.525 0-21.915-17.766-39.679-39.679-39.679-9.438 0-18.106 3.296-24.918 8.798l-154.694 116.005-154.77-116.063c-6.65-5.209-15.133-8.35-24.351-8.35-21.915 0-39.679 17.766-39.679 39.679 0 13.169 6.415 24.84 16.292 32.057l90.065 67.543h-165.366c-43.828 0-79.358 35.529-79.358 79.358v396.844c0 43.828 35.529 79.358 79.358 79.358 0 0 0 0 0 0h555.56c0 0 0 0 0 0 43.828 0 79.358-35.529 79.358-79.358 0 0 0 0 0 0v-396.844c0-43.828-35.529-79.358-79.358-79.358 0 0 0 0 0 0zM646.912 604.297l-171.69 114.44c-18.273 12.163-33.083 4.109-33.083-17.461v-237.856c0-21.623 14.866-29.624 33.083-17.461l171.69 114.225c18.272 12.162 18.162 31.949 0 44.111z" p-id="5082" fill="#7e7e7e"></path></svg>