<?xml version="1.0" standalone="no"?><!DOCTYPE svg PUBLIC "-//W3C//DTD SVG 1.1//EN" "http://www.w3.org/Graphics/SVG/1.1/DTD/svg11.dtd"><svg t="1533464104370" class="icon" style="" viewBox="0 0 1024 1024" version="1.1" xmlns="http://www.w3.org/2000/svg" p-id="8997" xmlns:xlink="http://www.w3.org/1999/xlink" width="50" height="50"><defs><style type="text/css"></style></defs><path d="M123.904 150.528h782.336c46.08 0 83.968 37.888 83.968 83.968v559.104c0 46.08-37.888 83.968-83.968 83.968H123.904c-46.08 0-83.968-37.888-83.968-83.968V234.496c0-47.104 36.864-83.968 83.968-83.968z" fill="#33E9AB" p-id="8998"></path><path d="M158.72 205.824h14.336c11.264 0 20.48 9.216 20.48 20.48s-9.216 20.48-20.48 20.48h-14.336c-11.264 0-20.48-9.216-20.48-20.48-1.024-11.264 8.192-20.48 20.48-20.48zM256 205.824h167.936c11.264 0 20.48 9.216 20.48 20.48s-9.216 20.48-20.48 20.48H256c-11.264 0-20.48-9.216-20.48-20.48s9.216-20.48 20.48-20.48z" fill="#FFFFFF" p-id="8999"></path><path d="M864.256 220.16c23.552 0 41.984 18.432 41.984 41.984s-18.432 41.984-41.984 41.984-41.984-18.432-41.984-41.984 18.432-41.984 41.984-41.984zM137.216 806.912L332.8 583.68l111.616 111.616 237.568-251.904 223.232 363.52h-768z" fill="#9AFFDD" p-id="9000"></path></svg>