<?xml version="1.0" standalone="no"?><!DOCTYPE svg PUBLIC "-//W3C//DTD SVG 1.1//EN" "http://www.w3.org/Graphics/SVG/1.1/DTD/svg11.dtd"><svg t="1533290054162" class="icon" style="" viewBox="0 0 1024 1024" version="1.1" xmlns="http://www.w3.org/2000/svg" p-id="39482" xmlns:xlink="http://www.w3.org/1999/xlink" width="50" height="50"><defs><style type="text/css"></style></defs><path d="M512 720.1C279.1 720.1 88.7 534.8 80.4 304h863.1C935.3 534.8 744.9 720.1 512 720.1z" fill="#4CA553" p-id="39483"></path><path d="M927 319.7c-7.4 99.3-49.6 191.7-120.7 262.8-78.7 78.6-183.2 121.8-294.3 121.8S296.4 661 217.8 582.4C146.6 511.3 104.4 419 97 319.7h830m32.6-31.5H64.4c0 247.2 200.4 447.6 447.6 447.6s447.6-200.4 447.6-447.6z" fill="#454A57" p-id="39484"></path><path d="M512 638.3c-185.5 0-337.3-146.7-345.6-330.2h691.1c-8.2 183.5-160 330.2-345.5 330.2z" fill="#E25A61" p-id="39485"></path><path d="M840.7 323.8C824.8 491.2 683.5 622.6 512 622.6S199.2 491.2 183.3 323.8h657.4m32.9-31.4H150.4C150.4 492.1 312.3 654 512 654s361.6-161.9 361.6-361.6z" fill="#454A57" p-id="39486"></path><path d="M534.6 462.2c0 12.6-10.1 22.8-22.6 22.8s-22.6-10.2-22.6-22.8 10.1-40.5 22.6-40.5 22.6 27.9 22.6 40.5zM442.1 449.5c-6.3 10.9-20.2 14.7-31 8.4-10.8-6.2-14.5-20.1-8.2-31s29-30 39.8-23.8c10.9 6.3 5.7 35.5-0.6 46.4zM368.2 392.3c-10.9 6.3-24.8 2.6-31-8.2-6.2-10.8-2.5-24.7 8.4-31 10.9-6.3 40.2-11.5 46.4-0.7 6.3 10.9-12.9 33.6-23.8 39.9zM621.1 426.9c6.3 10.9 2.6 24.8-8.2 31-10.8 6.2-24.7 2.5-31-8.4-6.3-10.9-11.5-40.2-0.7-46.4 10.9-6.2 33.6 12.9 39.9 23.8zM678.4 353.1c10.9 6.3 14.7 20.2 8.4 31-6.2 10.8-20.1 14.5-31 8.2s-30-29-23.8-39.8c6.2-10.9 35.5-5.7 46.4 0.6z" fill="#3F4B4A" p-id="39487"></path></svg>