<?xml version="1.0" standalone="no"?><!DOCTYPE svg PUBLIC "-//W3C//DTD SVG 1.1//EN" "http://www.w3.org/Graphics/SVG/1.1/DTD/svg11.dtd"><svg t="1533296878471" class="icon" style="" viewBox="0 0 1024 1024" version="1.1" xmlns="http://www.w3.org/2000/svg" p-id="9432" xmlns:xlink="http://www.w3.org/1999/xlink" width="50" height="50"><defs><style type="text/css"></style></defs><path d="M291.68981333 523.41418667c-136.53333333 49.152-229.04832 174.76266667-229.04832 316.26581333a25.77749333 25.77749333 0 0 0 27.30666667 27.30666667 25.77749333 25.77749333 0 0 0 27.30666667-27.30666667c0-158.37866667 131.072-283.55242667 289.01376-283.55242667h10.92266666c152.91733333 0 283.55242667 131.072 283.55242667 283.55242667a27.30666667 27.30666667 0 0 0 54.61333333 0 334.28821333 334.28821333 0 0 0-223.58698666-316.26581333 217.79797333 217.79797333 0 0 0 98.304-180.224c0-114.688-98.304-212.66432-218.12565334-212.66432s-218.12565333 92.84266667-218.12565333 212.66432a210.69824 210.69824 0 0 0 98.304 180.224z m125.61066667-21.84533334c-87.38133333 0-163.84-70.99733333-163.84-158.37866666s70.99733333-158.37866667 163.84-158.37866667 163.84 70.99733333 163.84 158.37866667-76.45866667 158.37866667-163.84 158.37866666z m201.74165333 21.84533334c5.46133333 10.92266667 16.384 21.84533333 38.22933334 21.84533333 120.14933333 0 223.58698667 103.76533333 223.58698666 234.50965333a27.30666667 27.30666667 0 0 0 54.61333334 0 284.86314667 284.86314667 0 0 0-180.224-267.22304 191.14666667 191.14666667 0 0 0 76.45866666-152.91733333c0-103.76533333-81.92-185.41226667-180.224-185.41226667a25.77749333 25.77749333 0 0 0-27.30666666 27.30666667 25.77749333 25.77749333 0 0 0 27.30666666 27.30666667c65.536 0 120.14933333 60.07466667 120.14933334 131.072s-54.61333333 131.072-125.61066667 131.072c-10.92266667 0-27.30666667 10.92266667-27.30666667 27.30666666v5.46133334z m0 0" p-id="9433" fill="#ffffff"></path></svg>