<?xml version="1.0" standalone="no"?><!DOCTYPE svg PUBLIC "-//W3C//DTD SVG 1.1//EN" "http://www.w3.org/Graphics/SVG/1.1/DTD/svg11.dtd"><svg t="1533305377178" class="icon" style="" viewBox="0 0 1024 1024" version="1.1" xmlns="http://www.w3.org/2000/svg" p-id="7616" xmlns:xlink="http://www.w3.org/1999/xlink" width="50" height="50"><defs><style type="text/css"></style></defs><path d="M834.3 118.6h-646c-33.5 0-60.6 27.4-60.6 61.2v674.9c0 33.8 27.1 61.2 60.6 61.2h646c33.5 0 60.6-27.4 60.6-61.2V179.8c0-33.8-27.1-61.2-60.6-61.2z" fill="#63D7FE" p-id="7617"></path><path d="M189.8 118.6h-11.3c-28 0-50.7 22.9-50.7 51.2v694.9c0 28.3 22.7 51.2 50.7 51.2h11.3c28 0 50.7-22.9 50.7-51.2V169.8c0-28.3-22.7-51.2-50.7-51.2z" fill="#0F8CB8" p-id="7618"></path><path d="M824.4 118.6H694.7c-7.8 0-14.1 6.6-14.1 14.8v141.1c0 12.8 14.4 19.5 23.5 11.1l43.6-40.5c5.2-4.8 13-5 18.4-0.3l49.3 42.7c9.2 8 23.2 1.1 23.2-11.4V133.4c-0.1-8.2-6.4-14.8-14.2-14.8z" fill="#FEC053" p-id="7619"></path></svg>