<?xml version="1.0" standalone="no"?><!DOCTYPE svg PUBLIC "-//W3C//DTD SVG 1.1//EN" "http://www.w3.org/Graphics/SVG/1.1/DTD/svg11.dtd"><svg t="1533474449046" class="icon" style="" viewBox="0 0 1061 1024" version="1.1" xmlns="http://www.w3.org/2000/svg" p-id="2229" xmlns:xlink="http://www.w3.org/1999/xlink" width="51.806640625" height="50"><defs><style type="text/css"></style></defs><path d="M1050.24 158.784C1029.866667 181.141333 970.986667 243.178667 970.986667 243.178667L813.909333 90.154667 891.285333 14.506667C891.285333 14.506667 906.901333 0 930.88 0 942.848 0 956.928 3.626667 972.16 14.506667 1017.877333 47.189333 1054.272 90.837333 1054.272 90.837333 1054.272 90.837333 1070.613333 136.448 1050.24 158.784ZM1013.248 113.344C1012.458667 109.76 1011.413333 106.496 1010.538667 104.042667 999.530667 92.693333 987.946667 78.506667 954.176 54.378667 947.008 49.258667 940.288 46.656 934.208 46.656 926.634667 46.656 920.682667 50.688 919.189333 51.797333L920.170667 50.837333 919.210667 51.754667 919.189333 51.797333C919.168 51.797333 919.168 51.797333 919.168 51.797333L880.405333 90.112 968.085333 177.728C988.501333 157.376 1002.304 140.096 1014.144 127.189333 1014.570667 125.696 1015.018667 121.216 1013.248 113.344ZM504.917333 697.514667 349.013333 539.349333 783.936 119.829333 933.973333 271.125333 504.917333 697.514667ZM422.485333 535.296 514.517333 626.88 872.810667 268.949333 786.026667 183.338667 422.485333 535.296ZM322.048 578.304 467.413333 718.144 234.666667 810.666667 320 576 322.048 578.304ZM390.250667 705.642667 337.024 653.632 298.730667 742.570667 390.250667 705.642667ZM64 959.338667 917.034667 960.576 917.034667 384.490667 980.821333 384.490667 980.821333 983.253333C980.821333 1005.717333 959.744 1024 937.109333 1024L41.066667 1024C18.432 1024 0 1005.717333 0 983.253333L0 105.216C0 82.730667 18.432 64.469333 41.066667 64.469333L640 64 640 128 64 128 64 959.338667Z" p-id="2230" fill="#ffffff"></path></svg>