<?xml version="1.0" standalone="no"?><!DOCTYPE svg PUBLIC "-//W3C//DTD SVG 1.1//EN" "http://www.w3.org/Graphics/SVG/1.1/DTD/svg11.dtd"><svg t="1533201723011" class="icon" style="" viewBox="0 0 1024 1024" version="1.1" xmlns="http://www.w3.org/2000/svg" p-id="10428" xmlns:xlink="http://www.w3.org/1999/xlink" width="200" height="200"><defs><style type="text/css"></style></defs><path d="M890.048 1023.104 133.312 1023.104c-7.616 0-14.784-3.008-19.968-8.512-5.12-5.504-7.68-12.864-7.04-20.16l59.52-723.008c1.216-13.696 5.376-30.08 30.08-30.08l631.488 0c14.272 0 29.056 16.192 30.144 30.08l60.096 721.664c0.512 7.232-2.688 16.256-7.808 21.632C904.768 1020.096 897.6 1023.104 890.048 1023.104L890.048 1023.104 890.048 1023.104zM195.904 963.072l661.568 0L797.376 301.504 225.984 301.504l-60.16 661.504L195.904 963.072 195.904 963.072zM737.152 211.264l-60.032 0c0-125.056-104.064-150.336-150.336-150.336-46.336 0-180.416 25.28-180.416 150.336l-60.16 0c0-150.72 141.248-210.496 229.824-210.496C604.608 0.832 737.152 60.544 737.152 211.264L737.152 211.264 737.152 211.264zM295.232 413.632c0-31.808 26.304-57.536 58.752-57.536 32.384 0 58.752 25.792 58.752 57.536S386.368 471.104 353.984 471.104C321.536 471.104 295.232 445.376 295.232 413.632M613.504 413.632c0-31.808 26.24-57.536 58.752-57.536s58.752 25.792 58.752 57.536-26.24 57.472-58.752 57.472S613.504 445.376 613.504 413.632" p-id="10429" fill="#7a7a7a"></path></svg>