<?xml version="1.0" standalone="no"?><!DOCTYPE svg PUBLIC "-//W3C//DTD SVG 1.1//EN" "http://www.w3.org/Graphics/SVG/1.1/DTD/svg11.dtd"><svg t="1533464354654" class="icon" style="" viewBox="0 0 1024 1024" version="1.1" xmlns="http://www.w3.org/2000/svg" p-id="17413" xmlns:xlink="http://www.w3.org/1999/xlink" width="50" height="50"><defs><style type="text/css"></style></defs><path d="M325.28896 683.776h519.70048c24.74496 0 49.49504-16.49664 57.74848-41.2416l98.97984-428.97408c8.25344-16.49664 0-32.9984-8.2432-49.49504-8.25344-16.50176-32.9984-24.75008-49.50016-24.75008H234.5472L209.79712 32.07168H53.05856c-16.49664 0-32.9984 8.25344-32.9984 24.75008 0 16.49664 16.50176 32.9984 32.9984 32.9984H160.3072l49.49504 214.48192c0 8.24832 74.24512 321.72544 74.24512 321.72544-32.9984 16.50688-65.9968 57.74336-65.9968 107.2384 0 32.9984 16.50176 57.74848 32.9984 74.24512-16.49664 16.49664-32.9984 49.49504-32.9984 74.24512 0 57.74336 49.50016 107.23328 107.24352 107.23328 57.74848 0 107.24352-41.2416 107.24352-98.98496 0-16.49664-8.24832-32.9984-8.24832-49.49504h354.7136c-8.25344 16.49664-8.25344 32.9984-8.25344 49.49504 0 57.74336 49.50016 107.24352 107.2384 107.24352 57.74336 0 107.2384-49.50016 107.2384-107.24352 0-57.73824-41.24672-98.99008-98.98496-107.24352H325.28896c-24.74496 0-49.49504-24.74496-49.49504-49.49504 8.24832-24.73472 24.75008-49.48992 49.49504-49.48992z" fill="#F76C6C" p-id="17414"></path><path d="M877.9776 1007.49312c-63.68256 0-117.4784-53.80096-117.4784-117.48352 0-12.75904 0-25.83552 3.67616-39.25504H435.58912c0.7168 3.8912 1.72032 7.89504 2.75456 12.02688 2.176 8.70912 4.4288 17.72032 4.4288 27.22816 0 61.25056-51.60448 109.22496-117.48352 109.22496-63.68256 0-117.48352-53.79584-117.48352-117.47328 0-24.91904 14.01856-55.08096 29.37856-74.08128-19.25632-22.02624-29.37856-47.57504-29.37856-74.40896 0-51.52256 32.19456-93.0304 64.48128-112.44544-26.68544-112.72704-68.5824-290.8416-72.44288-314.22464l-0.0256 0.00512-47.66208-206.54592H53.05856c-22.22592 0-43.2384-21.01248-43.2384-43.2384 0-20.2752 18.18624-34.99008 43.2384-34.99008h164.88448l24.75008 107.24352H943.9744c21.05856 0 48.77312 10.65984 58.65984 30.40768 8.64768 17.3056 18.41664 36.85376 8.8064 57.49248l-98.98496 428.8c-9.32352 27.95008-37.69856 48.24064-67.46624 48.24064H325.28896c-22.56896 0-35.15392 29.34272-39.20896 40.832 1.06496 18.59584 20.6592 37.67808 39.20896 37.67808h561.67936l0.72192 0.10752c64.46592 9.216 107.776 56.38656 107.776 117.38112-0.00512 63.68256-53.80608 117.4784-117.48864 117.4784z m-463.93344-177.21856h381.52704l-7.41888 14.82752c-7.168 14.33088-7.168 29.184-7.168 44.90752 0 51.67616 45.32736 97.00352 96.9984 97.00352s96.9984-45.33248 96.9984-97.00352c0-50.93376-35.0976-88.94464-89.48736-97.00352H325.28896c-30.14656 0-59.73504-29.58848-59.73504-59.73504v-1.65888l0.52736-1.58208c11.97056-35.90656 33.55648-56.49408 59.20768-56.49408h519.70048c21.05856 0 41.11872-14.18752 47.89248-33.80224l99.13344-429.66016 0.54784-1.09056c5.5552-11.10528 0.59392-22.64064-8.23808-40.30976-5.71904-11.43808-25.48224-19.11296-40.35072-19.11296H226.40128L201.6512 42.31168H53.05856c-7.87456 0-22.7584 3.03104-22.7584 14.51008 0 10.84928 11.90912 22.7584 22.7584 22.7584H168.448l51.58912 224.256c1.87392 13.43488 45.1328 198.0928 73.96864 319.83104l1.8688 7.88992-7.25504 3.63008c-29.98272 14.99648-60.3392 53.49888-60.3392 98.07872 0 24.55552 10.09152 47.09888 29.99808 67.00544l7.2448 7.23968-7.2448 7.23968c-14.4896 14.48448-29.99808 44.87168-29.99808 67.00544 0 51.67104 45.32736 96.99328 97.00352 96.99328 54.39488 0 97.00352-38.97856 97.00352-88.74496 0-6.98368-1.85344-14.40768-3.81952-22.26688-2.176-8.70912-4.4288-17.72032-4.4288-27.22816v-10.23488h0.00512z" fill="#F74040" p-id="17415"></path><path d="M869.7344 840.51456c24.75008 0 49.48992 24.74496 49.48992 49.49504 0 24.7552-16.4864 41.24672-49.48992 41.24672-24.74496 0-49.49504-24.74496-49.49504-49.49504s24.75008-41.24672 49.49504-41.24672z" fill="#FFFFFF" p-id="17416"></path><path d="M869.7344 941.49632c-30.14656 0-59.73504-29.58848-59.73504-59.73504 0-31.80032 31.00672-51.48672 59.73504-51.48672 30.14656 0 59.72992 29.58848 59.72992 59.73504 0 31.75424-22.8864 51.48672-59.72992 51.48672z m0-90.74176c-18.88256 0-39.25504 11.8528-39.25504 31.00672 0 19.07712 20.17792 39.25504 39.25504 39.25504 17.90464 0 39.24992-5.38112 39.24992-31.00672 0-19.07712-20.1728-39.25504-39.24992-39.25504z" fill="#F74040" p-id="17417"></path><path d="M325.28896 931.25632c-24.74496 0-49.49504-24.74496-49.49504-49.49504s24.75008-49.48992 49.49504-49.48992c24.75008 0 49.49504 24.73984 49.49504 49.48992 0 33.00352-24.74496 49.49504-49.49504 49.49504z" fill="#FFFFFF" p-id="17418"></path><path d="M325.28896 941.49632c-30.14656 0-59.73504-29.58848-59.73504-59.73504s29.58848-59.72992 59.73504-59.72992S385.024 851.61472 385.024 881.76128c0 39.21408-30.04928 59.73504-59.73504 59.73504z m0-98.98496c-19.07712 0-39.25504 20.1728-39.25504 39.24992s20.17792 39.25504 39.25504 39.25504c19.53792 0 39.25504-12.13952 39.25504-39.25504 0-19.07712-20.17792-39.24992-39.25504-39.24992z" fill="#F74040" p-id="17419"></path><path d="M844.98944 626.02752h-494.9504L256 208.96256h686.08l-97.09056 417.06496z" fill="#FFFFFF" p-id="17420"></path><path d="M844.98944 636.26752h-494.9504a10.24 10.24 0 0 1-9.98912-7.99232L246.01088 211.21024A10.22976 10.22976 0 0 1 256 198.71744h686.08a10.22976 10.22976 0 0 1 9.97376 12.55936l-97.09056 417.06496a10.23488 10.23488 0 0 1-9.97376 7.92576z m-486.76352-20.48h478.63296l92.31872-396.59008H268.80512l89.4208 396.59008z" fill="#F74040" p-id="17421"></path><path d="M415.73376 544.10752L358.6304 290.88256h480.45568l-58.95168 253.22496z" fill="#FFB450" p-id="17422"></path><path d="M780.1344 551.78752H415.73376a7.68 7.68 0 0 1-7.49056-5.9904L351.13984 292.57216a7.68 7.68 0 0 1 7.49056-9.3696h480.45568a7.68 7.68 0 0 1 7.48032 9.4208l-58.95168 253.22496a7.68 7.68 0 0 1-7.48032 5.9392z m-358.26176-15.36h352.16896l55.36768-237.87008H368.23552l53.63712 237.87008z" fill="#FFA228" p-id="17423"></path></svg>