<?xml version="1.0" standalone="no"?><!DOCTYPE svg PUBLIC "-//W3C//DTD SVG 1.1//EN" "http://www.w3.org/Graphics/SVG/1.1/DTD/svg11.dtd"><svg t="1533464812951" class="icon" style="" viewBox="0 0 1024 1024" version="1.1" xmlns="http://www.w3.org/2000/svg" p-id="18999" xmlns:xlink="http://www.w3.org/1999/xlink" width="50" height="50"><defs><style type="text/css"></style></defs><path d="M904 844H344c-81.6 0-117.6-61.6-125.2-94.4l-0.4-1.2C215.2 730.4 142 316 132 202c-2.4-28.8-11.2-48.4-26.4-58.8-21.6-15.2-51.2-8-51.6-8-12.8 3.6-26-4.4-29.2-17.2-3.2-12.8 4.4-26 17.2-29.2 2-0.4 51.2-13.2 91.6 15.2C160.4 122.8 176 154.4 180 198c9.6 109.2 81.6 519.2 85.6 541.2 2 7.6 17.6 57.2 78.4 57.2h560c13.2 0 24 10.8 24 24s-10.8 23.6-24 23.6z" fill="#ffffff" p-id="19000"></path><path d="M734.4 692H332.4c-13.2 0-24-10.8-24-24s10.8-24 24-24h402c70.4 0 82.8-38 82.8-38.4 0.8-2.4 64.8-238 79.6-306 2-8.8 3.2-20.8-2.4-27.6-5.6-6.8-18.4-8.4-21.2-8.4L272 272.8c-13.2 0.4-24-10.4-24.4-23.6s10.4-24 23.6-24.4L872.4 216c3.6 0 38 0 59.2 25.6 9.6 12 19.6 33.2 12 68.4-15.2 68.8-77.6 298.4-80.4 308-0.8 3.2-20.8 74-128.8 74z" fill="#ffffff" p-id="19001"></path><path d="M298 940m-64 0a64 64 0 1 0 128 0 64 64 0 1 0-128 0Z" fill="#ffffff" p-id="19002"></path><path d="M774 940m-64 0a64 64 0 1 0 128 0 64 64 0 1 0-128 0Z" fill="#ffffff" p-id="19003"></path></svg>