<?xml version="1.0" standalone="no"?><!DOCTYPE svg PUBLIC "-//W3C//DTD SVG 1.1//EN" "http://www.w3.org/Graphics/SVG/1.1/DTD/svg11.dtd"><svg t="1533251327282" class="icon" style="" viewBox="0 0 1024 1024" version="1.1" xmlns="http://www.w3.org/2000/svg" p-id="1486" xmlns:xlink="http://www.w3.org/1999/xlink" width="200" height="200"><defs><style type="text/css"></style></defs><path d="M859.136 159.232H164.864c-55.808 0-101.376 45.568-101.376 101.376V762.88c0 55.808 45.568 101.376 101.376 101.376h694.784c55.808 0 101.376-45.568 101.376-101.376V260.608c0-55.808-45.568-101.376-101.888-101.376z m37.888 441.344h-200.192c-48.64 0-88.576-39.424-88.576-88.576s39.424-88.576 88.576-88.576h200.192v177.152z m-37.888 200.192H164.864c-20.992 0-37.376-16.896-37.376-37.376V260.608c0-20.48 16.896-37.376 37.376-37.376h694.784c20.992 0 37.376 16.896 37.376 37.376v101.376h-200.192c-82.432 0-150.016 67.072-150.016 150.016 0 82.432 67.072 150.016 150.016 150.016h200.192v101.376c0 20.48-16.896 37.376-37.888 37.376z" p-id="1487" fill="#ffffff"></path><path d="M696.832 512m-38.4 0a38.4 38.4 0 1 0 76.8 0 38.4 38.4 0 1 0-76.8 0Z" p-id="1488" fill="#ffffff"></path></svg>