<?xml version="1.0" standalone="no"?><!DOCTYPE svg PUBLIC "-//W3C//DTD SVG 1.1//EN" "http://www.w3.org/Graphics/SVG/1.1/DTD/svg11.dtd"><svg t="1533199595196" class="icon" style="" viewBox="0 0 1024 1024" version="1.1" xmlns="http://www.w3.org/2000/svg" p-id="8302" data-spm-anchor-id="a313x.7781069.0.i29" xmlns:xlink="http://www.w3.org/1999/xlink" width="180" height="180"><defs><style type="text/css"></style></defs><path d="M375.466667 170.666667H273.066667C215.04 170.666667 170.666667 215.04 170.666667 273.066667v102.4c0 54.613333 44.373333 102.4 102.4 102.4h102.4c54.613333 0 102.4-44.373333 102.4-102.4V273.066667c0-58.026667-44.373333-102.4-102.4-102.4z m34.133333 204.8c0 17.066667-13.653333 34.133333-34.133333 34.133333H273.066667c-17.066667 0-34.133333-13.653333-34.133334-34.133333V273.066667c0-17.066667 13.653333-34.133333 34.133334-34.133334h102.4c17.066667 0 34.133333 13.653333 34.133333 34.133334v102.4zM750.933333 170.666667h-102.4c-54.613333 0-102.4 44.373333-102.4 102.4v102.4c0 54.613333 44.373333 102.4 102.4 102.4h102.4c54.613333 0 102.4-44.373333 102.4-102.4V273.066667c0-58.026667-44.373333-102.4-102.4-102.4z m34.133334 204.8c0 17.066667-13.653333 34.133333-34.133334 34.133333h-102.4c-17.066667 0-34.133333-13.653333-34.133333-34.133333V273.066667c0-17.066667 13.653333-34.133333 34.133333-34.133334h102.4c17.066667 0 34.133333 13.653333 34.133334 34.133334v102.4zM375.466667 546.133333H273.066667c-54.613333 0-102.4 44.373333-102.4 102.4v102.4c0 54.613333 44.373333 102.4 102.4 102.4h102.4c54.613333 0 102.4-44.373333 102.4-102.4v-102.4c0-58.026667-44.373333-102.4-102.4-102.4z m34.133333 204.8c0 17.066667-13.653333 34.133333-34.133333 34.133334H273.066667c-17.066667 0-34.133333-13.653333-34.133334-34.133334v-102.4c0-17.066667 13.653333-34.133333 34.133334-34.133333h102.4c17.066667 0 34.133333 13.653333 34.133333 34.133333v102.4zM750.933333 546.133333h-102.4c-54.613333 0-102.4 44.373333-102.4 102.4v102.4c0 54.613333 44.373333 102.4 102.4 102.4h102.4c54.613333 0 102.4-44.373333 102.4-102.4v-102.4c0-58.026667-44.373333-102.4-102.4-102.4z m34.133334 204.8c0 17.066667-13.653333 34.133333-34.133334 34.133334h-102.4c-17.066667 0-34.133333-13.653333-34.133333-34.133334v-102.4c0-17.066667 13.653333-34.133333 34.133333-34.133333h102.4c17.066667 0 34.133333 13.653333 34.133334 34.133333v102.4z" p-id="8303" fill="#7a7a7a" data-spm-anchor-id="a313x.7781069.0.i28" class=""></path></svg>