<?xml version="1.0" standalone="no"?><!DOCTYPE svg PUBLIC "-//W3C//DTD SVG 1.1//EN" "http://www.w3.org/Graphics/SVG/1.1/DTD/svg11.dtd"><svg t="1533201575696" class="icon" style="" viewBox="0 0 1024 1024" version="1.1" xmlns="http://www.w3.org/2000/svg" p-id="9614" xmlns:xlink="http://www.w3.org/1999/xlink" width="200" height="200"><defs><style type="text/css"></style></defs><path d="M170.666667 108.606061h248.242424a62.060606 62.060606 0 0 1 62.060606 62.060606v248.242424a62.060606 62.060606 0 0 1-62.060606 62.060606H170.666667a62.060606 62.060606 0 0 1-62.060606-62.060606V170.666667a62.060606 62.060606 0 0 1 62.060606-62.060606z m434.424242 0h248.242424a62.060606 62.060606 0 0 1 62.060606 62.060606v248.242424a62.060606 62.060606 0 0 1-62.060606 62.060606H605.090909a62.060606 62.060606 0 0 1-62.060606-62.060606V170.666667a62.060606 62.060606 0 0 1 62.060606-62.060606zM170.666667 543.030303h248.242424a62.060606 62.060606 0 0 1 62.060606 62.060606v248.242424a62.060606 62.060606 0 0 1-62.060606 62.060606H170.666667a62.060606 62.060606 0 0 1-62.060606-62.060606V605.090909a62.060606 62.060606 0 0 1 62.060606-62.060606z m434.424242 0h248.242424a62.060606 62.060606 0 0 1 62.060606 62.060606v248.242424a62.060606 62.060606 0 0 1-62.060606 62.060606H605.090909a62.060606 62.060606 0 0 1-62.060606-62.060606V605.090909a62.060606 62.060606 0 0 1 62.060606-62.060606zM170.666667 170.666667v248.242424h248.242424V170.666667z m434.424242 0v248.242424h248.242424V170.666667z m0 434.424242v248.242424h248.242424V605.090909z m-434.424242 0v248.242424h248.242424V605.090909z" p-id="9615" fill="#7a7a7a"></path></svg>