<?xml version="1.0" standalone="no"?><!DOCTYPE svg PUBLIC "-//W3C//DTD SVG 1.1//EN" "http://www.w3.org/Graphics/SVG/1.1/DTD/svg11.dtd"><svg t="1533194026759" class="icon" style="" viewBox="0 0 1024 1024" version="1.1" xmlns="http://www.w3.org/2000/svg" p-id="22240" xmlns:xlink="http://www.w3.org/1999/xlink" width="200" height="200"><defs><style type="text/css"></style></defs><path d="M950.3744 472.79104l-422.74304-401.82272c-10.71616-10.1888-26.67008-10.09152-37.27872 0.22016L73.39008 476.20096c-8.77568 8.51968-11.82208 22.08768-7.6544 34.10944 4.16256 12.01152 14.67392 19.9424 26.41408 19.9424h58.57792v318.42816c-1.07008 11.26912-2.97984 51.8912 20.79232 81.84832 10.84928 13.6704 31.20128 29.9776 66.55488 29.9776h527.7952c0.9984 0.0512 2.39616 0.1024 4.13184 0.1024 12.70272 0 43.50976-2.78016 67.82464-27.392 13.51168-13.68064 29.6192-39.29088 29.6192-83.63008v-320.48128l65.20832-2.05824c11.64288-0.3584 21.88288-8.4992 25.79456-20.51072 3.93216-11.98592 0.7168-25.3952-8.07424-33.74592zM438.272 686.5408a12.1344 12.1344 0 0 1 0.14336-0.52224c0.42496-1.44896 1.4336-3.73248 3.84512-6.41024 4.91008-5.45792 21.30944-18.17088 67.46624-18.17088 39.78752 0 56.93952 9.94816 63.62112 15.872 5.92896 5.25824 6.92736 10.03008 7.08096 11.1616v210.19136H438.272v-212.1216z" p-id="22241" fill="#f97297"></path></svg>